<svg xmlns="http://www.w3.org/2000/svg" viewBox="0 0 64 64">
  <defs>
    <linearGradient id="ticket" x1="13" y1="14" x2="51" y2="51" gradientUnits="userSpaceOnUse">
      <stop stop-color="#ff4d4d" />
      <stop offset="1" stop-color="#b91c1c" />
    </linearGradient>
  </defs>
  <rect width="64" height="64" rx="16" fill="#09090b" />
  <path d="M12 20a7 7 0 0 0 7-7h26a7 7 0 0 0 7 7v7a7 7 0 0 0 0 14v7a7 7 0 0 0-7 7H19a7 7 0 0 0-7-7v-7a7 7 0 0 0 0-14v-7Z" fill="url(#ticket)" />
  <path d="M32 23.5 43 32 32 40.5v-17Z" fill="white" />
  <path d="M22 20v3M22 28v3M22 36v3M22 44v3" stroke="#fecaca" stroke-linecap="round" stroke-width="3" />
  <path d="M16 20a7 7 0 0 0 3-3.6M48 20a7 7 0 0 1-3-3.6M16 44a7 7 0 0 1 3 3.6M48 44a7 7 0 0 0-3 3.6" stroke="#fca5a5" stroke-linecap="round" stroke-width="2" />
</svg>
